<?xml version="1.0" encoding="utf-8"?>
<!-- Generator: Adobe Illustrator 21.1.0, SVG Export Plug-In . SVG Version: 6.00 Build 0)  -->
<svg version="1.1" id="Capa_1" xmlns="http://www.w3.org/2000/svg" xmlns:xlink="http://www.w3.org/1999/xlink" x="0px" y="0px"
	 viewBox="0 0 336.5 325" style="enable-background:new 0 0 336.5 325;" xml:space="preserve">
<style type="text/css">
	.st0{fill:#FFFFFF;stroke:#000000;stroke-width:21;stroke-miterlimit:10;}
	.st1{fill:#FFFFFF;}
</style>
<path class="st0" d="M293.5,270H127.2c-11.2,0-20.4-9.2-20.4-20.4V70.1c0-11.2,9.2-20.4,20.4-20.4h166.3c11.2,0,20.4,9.2,20.4,20.4
	v179.5C313.9,260.9,304.7,270,293.5,270z"/>
<path class="st0" d="M256.6,270H90.3c-11.2,0-20.4-9.2-20.4-20.4V34.8c0-11.2,9.2-20.4,20.4-20.4h166.3c11.2,0,20.4,9.2,20.4,20.4
	v214.8C277,260.9,267.8,270,256.6,270z"/>
<rect x="246" y="233.5" class="st1" width="44.9" height="26"/>
<g>
	<path class="st0" d="M126,212.6c0,24.5-35,72.6-49.7,91.6c-3.2,4.2-9.5,4.2-12.7,0c-14.7-19.1-49.7-67.2-49.7-91.6
		c0-31,25.1-56,56-56S126,181.7,126,212.6z"/>
	<circle class="st0" cx="69.9" cy="212.6" r="22.5"/>
</g>
<circle cx="277" cy="233.2" r="10.5"/>
<line class="st0" x1="131.1" y1="144.6" x2="237.6" y2="144.6"/>
<line class="st0" x1="164.9" y1="187.6" x2="238.4" y2="187.6"/>
<line class="st0" x1="165.5" y1="232" x2="239" y2="232"/>
<circle cx="238.6" cy="232" r="10.5"/>
<path class="st0" d="M222.5,107.3h-76.3c-8.3,0-15.1-6.8-15.1-15.1v-24c0-8.3,6.8-15.1,15.1-15.1h76.3c8.3,0,15.1,6.8,15.1,15.1v24
	C237.6,100.5,230.8,107.3,222.5,107.3z"/>
<circle cx="238.1" cy="187.6" r="10.5"/>
<circle cx="237.6" cy="144.6" r="10.5"/>
<circle cx="131.1" cy="144.6" r="10.5"/>
<circle cx="164.9" cy="187.6" r="10.5"/>
<circle cx="165.5" cy="232" r="10.5"/>
</svg>
