<?xml version="1.0" encoding="utf-8"?>
<!-- Generator: Adobe Illustrator 21.1.0, SVG Export Plug-In . SVG Version: 6.00 Build 0)  -->
<svg version="1.1" id="Layer_1" xmlns="http://www.w3.org/2000/svg" xmlns:xlink="http://www.w3.org/1999/xlink" x="0px" y="0px"
	 viewBox="0 0 306.3 309.8" style="enable-background:new 0 0 306.3 309.8;" xml:space="preserve">
<style type="text/css">
	.st0{fill:#FFFFFF;}
</style>
<path class="st0" d="M264.1,131.3c-0.1-0.5-0.2-1-0.3-1.6c0,0.2,0.1,0.4,0.1,0.6c0,0.2,0.1,0.3,0.1,0.5c0,0,0,0,0,0
	c0.1,0.4,0.2,0.9,0.3,1.3C264.2,131.8,264.2,131.5,264.1,131.3z"/>
<path class="st0" d="M263.8,129.7c0.2,0.8,0.3,1.6,0.5,2.4C264.1,131.3,263.9,130.5,263.8,129.7z"/>
<g>
	<path class="st0" d="M153.1,212.2c16-38.7,49.5-68.2,90.6-78.7c-9.3-41.6-46.4-72.7-90.6-72.7c-44.4,0-81.5,30.9-90.8,72.5
		C103.4,143.8,137.1,173.4,153.1,212.2z"/>
	<path class="st0" d="M42.4,129.7c11.3-50.8,56.7-89,110.8-89c54.1,0,99.3,38.1,110.6,89c0,0.2,0.2,0.5,0-0.1
		c4.5-0.4,9-0.6,13.7-0.6c7.9,0,15.6,0.6,23.1,2C290.3,58.6,228.2,3,153,3C77.8,3,15.7,58.7,5.6,131c0,0,0,0.1,0,0.1
		c7.5-1.4,15.2-2,23.2-2C33.4,129,37.9,129.3,42.4,129.7z"/>
	<path class="st0" d="M164.4,246.7c46.1-5.6,81.8-45.2,81.8-92.6v-0.7C203.4,165.6,170.9,201.9,164.4,246.7z"/>
	<path class="st0" d="M141.7,246.6c-6.5-44.7-39-81-81.8-93.1v0.6C59.9,201.5,95.6,240.9,141.7,246.6z"/>
	<path class="st0" d="M277.5,149.2c-3.7,0-7.5,0.2-11.2,0.6v0.1c0.2,1.4,0.2,2.8,0.2,4.2c0,59.1-45.5,107.8-103,112.8
		c-0.2-1.2-0.2-1.2-0.4,0c-3.2,0.4-6.5,0.6-9.9,0.6c-3.4,0-6.7-0.2-9.9-0.6c-0.2-1.2-0.2-1.2-0.4,0c-57.7-5-103.1-53.7-103.1-112.8
		c0-1.4,0-2.8,0.2-4.2c0-0.9,0-0.9,0,0c-3.7-0.4-7.5-0.6-11.2-0.6c-8.4,0-16.6,1-24.6,2.5v0.2c0,82.3,66.7,149,149,149
		s149-66.7,149-149v-0.2c0,0,0-0.1,0-0.1C294.1,150.1,286,149.2,277.5,149.2z"/>
</g>
<path class="st0" d="M264.1,131.3c0-0.2-0.1-0.3-0.1-0.5c0.1,0.4,0.2,0.9,0.3,1.3C264.2,131.8,264.2,131.5,264.1,131.3z"/>
</svg>
