<?xml version="1.0" encoding="utf-8"?>
<!-- Generator: Adobe Illustrator 21.1.0, SVG Export Plug-In . SVG Version: 6.00 Build 0)  -->
<svg version="1.1" id="Layer_1" xmlns="http://www.w3.org/2000/svg" xmlns:xlink="http://www.w3.org/1999/xlink" x="0px" y="0px"
	 viewBox="0 0 306.3 309.8" style="enable-background:new 0 0 306.3 309.8;" xml:space="preserve">
<style type="text/css">
	.st0{fill:url(#SVGID_1_);}
	.st1{fill:#FFFFFF;}
</style>
<radialGradient id="SVGID_1_" cx="146.7798" cy="321.9534" r="289.7379" fx="433.0365" fy="277.1745" gradientTransform="matrix(1 0 0 -1 0 312)" gradientUnits="userSpaceOnUse">
	<stop  offset="0" style="stop-color:#FFFFFF"/>
	<stop  offset="3.344761e-04" style="stop-color:#FFFFFF"/>
	<stop  offset="9.847832e-02" style="stop-color:#FDF4EC"/>
	<stop  offset="0.1994" style="stop-color:#FCEEE1"/>
	<stop  offset="0.3071" style="stop-color:#FCECDD"/>
	<stop  offset="0.6685" style="stop-color:#D0CAC0"/>
	<stop  offset="1" style="stop-color:#9EAEA3"/>
</radialGradient>
<path class="st0" d="M302.1,151.8v0.2c0,82.3-66.7,149-149,149s-149-66.7-149-149v-0.3c0-7,0.5-14,1.5-20.7C15.7,58.7,77.8,3,153,3
	s137.4,55.7,147.6,128.1C301.6,137.8,302.1,144.8,302.1,151.8z"/>
<path class="st1" d="M264.3,132.1c-0.2-0.8-0.3-1.6-0.5-2.4l0,0C263.9,130.5,264.1,131.3,264.3,132.1z"/>
<path class="st1" d="M42.3,129.7c-1.4,6.5-2.2,13.1-2.5,20.2c-3.7-0.4-7.5-0.6-11.2-0.6c-8.4,0-16.6,1-24.6,2.5c0-7,0.5-14,1.5-20.7
	c7.5-1.4,15.2-2,23.2-2C33.3,129,37.8,129.3,42.3,129.7z"/>
<path class="st1" d="M263.8,129.7L263.8,129.7c0.2,0.8,0.3,1.6,0.5,2.4C264.1,131.3,263.9,130.5,263.8,129.7z"/>
<path class="st1" d="M266.2,149.8c-0.2-6.2-0.8-12-1.9-17.8c-0.2-0.8-0.3-1.6-0.5-2.4c4.5-0.4,9-0.6,13.7-0.6c7.9,0,15.7,0.6,23.2,2
	c1,6.8,1.5,13.7,1.5,20.7c-8-1.6-16.2-2.5-24.7-2.5C273.8,149.2,269.9,149.4,266.2,149.8z"/>
<path class="st1" d="M263.8,129.7c-11.3-50.9-56.5-89-110.6-89s-99.5,38.2-110.8,89c-1.4,6.5-2.2,13.1-2.4,20.2
	c-0.2,1.4-0.2,2.8-0.2,4.2c0,59.1,45.4,107.8,103.1,112.8c0.2-1.2,0.2-2.4,0.2-3.6c0,1.2,0,2.4,0.2,3.6c3.2,0.4,6.5,0.6,9.9,0.6
	s6.7-0.2,9.9-0.6c0.2-1.2,0.2-2.4,0.2-3.6c0,1.2,0,2.4,0.2,3.6c57.5-5,103-53.7,103-112.8c0-1.4,0-2.8-0.2-4.2
	c-0.2-6.2-0.8-12.1-1.9-17.8C264.1,131.3,263.9,130.5,263.8,129.7L263.8,129.7z M59.9,154.1v-0.6c42.8,12.1,75.3,48.4,81.8,93.1
	C95.6,240.9,59.9,201.5,59.9,154.1z M153.1,212.2c-16-38.8-49.7-68.4-90.8-78.9c9.3-41.6,46.4-72.5,90.8-72.5
	c44.2,0,81.3,31.1,90.6,72.7C202.6,144,169.1,173.5,153.1,212.2z M246.2,154.1c0,47.4-35.7,87-81.8,92.6c6.5-44.8,39-81.1,81.8-93.3
	V154.1z"/>
</svg>
