<svg xmlns="http://www.w3.org/2000/svg" width="325.04" height="325.04" viewBox="0 0 325.04 325.04"><path d="M84.821 210.938a26.555 26.555 0 0 0-16.396-5.693c-8.055 0-15.556 3.579-20.58 9.821-4.393 5.464-6.382 12.3-5.598 19.247.785 6.962 4.258 13.198 9.778 17.561a26.543 26.543 0 0 0 16.393 5.694c8.061 0 15.563-3.586 20.583-9.834 4.389-5.455 6.376-12.283 5.595-19.227-.783-6.962-4.254-13.202-9.775-17.569zm-5.173 29.277c-2.732 3.402-6.826 5.354-11.23 5.354a14.3 14.3 0 0 1-8.951-3.108c-2.991-2.364-4.871-5.735-5.296-9.493a13.959 13.959 0 0 1 3.023-10.379c2.733-3.396 6.827-5.344 11.231-5.344 3.286 0 6.383 1.075 8.954 3.107 2.99 2.364 4.869 5.737 5.292 9.497.421 3.74-.651 7.42-3.023 10.366zm110.682-90.731c3.958 0 7.785-.867 11.384-2.582 6.362-3.044 11.141-8.369 13.454-14.995 2.301-6.584 1.887-13.669-1.163-19.944-4.363-8.994-13.681-14.806-23.738-14.806-3.966 0-7.801.87-11.399 2.587-6.36 3.034-11.141 8.355-13.458 14.983-2.305 6.589-1.892 13.675 1.163 19.953 4.377 8.993 13.702 14.804 23.757 14.804zm-13.594-30.796c1.254-3.585 3.846-6.467 7.298-8.114a14.375 14.375 0 0 1 6.232-1.417c5.491 0 10.571 3.157 12.943 8.048a13.915 13.915 0 0 1 .63 10.745c-1.253 3.587-3.848 6.473-7.296 8.123a14.33 14.33 0 0 1-6.214 1.411c-5.496 0-10.586-3.162-12.968-8.055a13.903 13.903 0 0 1-.625-10.741zm-51.701-11.607c1.93.436 3.905.657 5.87.657 12.352 0 22.905-8.354 25.665-20.327 1.551-6.789.358-13.778-3.356-19.682-3.745-5.95-9.598-10.086-16.476-11.644a26.667 26.667 0 0 0-5.895-.664c-12.344 0-22.886 8.363-25.637 20.334-1.564 6.784-.379 13.774 3.336 19.682 3.748 5.958 9.607 10.094 16.493 11.644zm-8.134-28.634c1.491-6.491 7.225-11.025 13.942-11.025 1.079 0 2.168.123 3.239.366 3.752.85 6.939 3.099 8.975 6.333a13.952 13.952 0 0 1 1.816 10.605c-1.471 6.381-7.346 11.012-13.969 11.012-1.076 0-2.161-.122-3.229-.363-3.753-.845-6.94-3.092-8.975-6.326a13.914 13.914 0 0 1-1.799-10.602zM77.356 122.05c5.514-4.369 8.981-10.61 9.765-17.573.781-6.942-1.202-13.77-5.593-19.235-5.032-6.239-12.539-9.817-20.594-9.817a26.564 26.564 0 0 0-16.385 5.681c-5.515 4.356-8.984 10.587-9.771 17.545-.786 6.951 1.202 13.791 5.601 19.265 5.028 6.246 12.536 9.829 20.6 9.829a26.48 26.48 0 0 0 16.377-5.695zm-27.625-11.657c-2.376-2.956-3.451-6.648-3.027-10.396.424-3.753 2.302-7.119 5.282-9.474a14.313 14.313 0 0 1 8.949-3.1c4.408 0 8.511 1.95 11.246 5.341a13.962 13.962 0 0 1 3.016 10.37c-.423 3.764-2.303 7.142-5.292 9.51a14.235 14.235 0 0 1-8.925 3.099c-4.413.001-8.513-1.951-11.249-5.35z"/><path d="M322.745 63.336c-1.037-1.046-2.887-2.293-5.806-2.293-3.423 0-12.516 0-67.74 46.992-1.11.944-2.23 1.901-3.354 2.865-9.867-25.739-27.203-48.686-49.542-65.284-25.614-19.031-56.114-29.096-88.2-29.104h-.025c-21.654 0-47.976 7.566-68.697 19.749C13.981 51.193-.005 71.163 0 92.49c.008 25.748 14.53 36.518 26.199 45.171 9.515 7.057 17.03 12.63 17.034 24.844.003 12.213-7.508 17.781-17.018 24.831C14.55 195.984.031 206.748.039 232.499c.006 21.324 14.001 41.299 39.406 56.244 20.736 12.198 47.072 19.78 68.73 19.786h.042c39.305 0 76.254-15.171 104.044-42.72 27.436-27.197 42.695-63.246 43.096-101.661 9.316-10.601 18.341-21.138 26.58-31.067 14.096-16.986 24.935-31.002 32.216-41.657 9.646-14.113 13.87-22.769 8.592-28.088zM203.814 257.287c-25.529 25.308-59.475 39.242-95.596 39.242h-.038c-38.707-.011-96.13-26.903-96.141-64.034-.006-19.707 10.354-27.388 21.323-35.52 10.253-7.602 21.874-16.218 21.87-34.474-.006-18.253-11.63-26.874-21.886-34.479-10.974-8.139-21.34-15.826-21.346-35.535-.005-22.801 20.963-38.533 33.463-45.882 18.698-10.993 43.273-18.094 62.615-18.094h.021c29.491.008 57.517 9.254 81.048 26.736 21.702 16.125 38.268 38.761 46.994 64.049-26.025 22.724-54.207 48.924-75.195 69.98-34.859 4.512-39.608 27.744-43.08 44.811-2.956 14.532-4.875 21.558-16.092 22.458a5.999 5.999 0 1 0-1.815 11.524c.721.298 17.877 7.308 37.921 7.309h.007c13.968 0 25.95-3.386 35.612-10.063 11.906-8.228 19.979-21.273 24.036-38.767 13.713-13.874 29.382-30.604 44.876-47.837-3.566 29.67-16.955 57.122-38.597 78.576zm-18.334-31.875c-6.358 25.196-22.356 37.968-47.594 37.967h-.006c-6.655 0-13.028-.908-18.386-2.04 6.4-6.527 8.399-16.349 10.13-24.858 3.297-16.208 6.415-31.547 31.923-35.191l23.933 24.122zm82.856-94.76c-23.785 28.337-52.575 60.159-76.275 84.354l-3.669-3.698-16.189-16.317c21.488-21.39 49.054-46.895 74.773-69.216 2.998-2.602 5.977-5.171 8.913-7.675 29.847-25.455 45.489-36.533 53.468-41.354-4.765 8.027-15.741 23.788-41.021 53.906z"/></svg>