<svg xmlns="http://www.w3.org/2000/svg" id="Capa_1" width="336.5" height="325" viewBox="0 0 336.5 325"><style>.st0{stroke:#000;stroke-width:21;stroke-miterlimit:10}.st0,.st1{fill:#fff}</style><path d="M293.5 270H127.2c-11.2 0-20.4-9.2-20.4-20.4V70.1c0-11.2 9.2-20.4 20.4-20.4h166.3c11.2 0 20.4 9.2 20.4 20.4v179.5c0 11.3-9.2 20.4-20.4 20.4z" class="st0"/><path d="M256.6 270H90.3c-11.2 0-20.4-9.2-20.4-20.4V34.8c0-11.2 9.2-20.4 20.4-20.4h166.3c11.2 0 20.4 9.2 20.4 20.4v214.8c0 11.3-9.2 20.4-20.4 20.4z" class="st0"/><path d="M246 233.5h44.9v26H246z" class="st1"/><path d="M126 212.6c0 24.5-35 72.6-49.7 91.6-3.2 4.2-9.5 4.2-12.7 0-14.7-19.1-49.7-67.2-49.7-91.6 0-31 25.1-56 56-56s56.1 25.1 56.1 56z" class="st0"/><circle cx="69.9" cy="212.6" r="22.5" class="st0"/><circle cx="277" cy="233.2" r="10.5"/><path d="M131.1 144.6h106.5m-72.7 43h73.5M165.5 232H239" class="st0"/><circle cx="238.6" cy="232" r="10.5"/><path d="M222.5 107.3h-76.3c-8.3 0-15.1-6.8-15.1-15.1v-24c0-8.3 6.8-15.1 15.1-15.1h76.3c8.3 0 15.1 6.8 15.1 15.1v24c0 8.3-6.8 15.1-15.1 15.1z" class="st0"/><circle cx="238.1" cy="187.6" r="10.5"/><circle cx="237.6" cy="144.6" r="10.5"/><circle cx="131.1" cy="144.6" r="10.5"/><circle cx="164.9" cy="187.6" r="10.5"/><circle cx="165.5" cy="232" r="10.5"/></svg>