<svg xmlns="http://www.w3.org/2000/svg" id="Layer_1" width="306.3" height="309.8" viewBox="0 0 306.3 309.8"><style>.st0{fill:url(#SVGID_1_)}.st1{fill:#fff}</style><radialGradient id="SVGID_1_" cx="146.78" cy="321.95" r="289.74" fx="433.04" fy="277.17" gradientTransform="matrix(1 0 0 -1 0 312)" gradientUnits="userSpaceOnUse"><stop offset="0" stop-color="#fff"/><stop offset="0" stop-color="#fff"/><stop offset=".1" stop-color="#fdf4ec"/><stop offset=".2" stop-color="#fceee1"/><stop offset=".31" stop-color="#fcecdd"/><stop offset=".67" stop-color="#d0cac0"/><stop offset="1" stop-color="#9eaea3"/></radialGradient><path d="M302.1 151.8v.2c0 82.3-66.7 149-149 149s-149-66.7-149-149v-.3c0-7 .5-14 1.5-20.7C15.7 58.7 77.8 3 153 3s137.4 55.7 147.6 128.1c1 6.7 1.5 13.7 1.5 20.7z" class="st0"/><path d="M264.3 132.1c-.2-.8-.3-1.6-.5-2.4.1.8.3 1.6.5 2.4zm-222-2.4c-1.4 6.5-2.2 13.1-2.5 20.2-3.7-.4-7.5-.6-11.2-.6-8.4 0-16.6 1-24.6 2.5 0-7 .5-14 1.5-20.7 7.5-1.4 15.2-2 23.2-2 4.6-.1 9.1.2 13.6.6z" class="st1"/><path d="M263.8 129.7c.2.8.3 1.6.5 2.4-.2-.8-.4-1.6-.5-2.4z" class="st1"/><path d="M266.2 149.8c-.2-6.2-.8-12-1.9-17.8-.2-.8-.3-1.6-.5-2.4 4.5-.4 9-.6 13.7-.6 7.9 0 15.7.6 23.2 2 1 6.8 1.5 13.7 1.5 20.7-8-1.6-16.2-2.5-24.7-2.5-3.7 0-7.6.2-11.3.6z" class="st1"/><path d="M263.8 129.7c-11.3-50.9-56.5-89-110.6-89s-99.5 38.2-110.8 89c-1.4 6.5-2.2 13.1-2.4 20.2-.2 1.4-.2 2.8-.2 4.2 0 59.1 45.4 107.8 103.1 112.8.2-1.2.2-2.4.2-3.6 0 1.2 0 2.4.2 3.6 3.2.4 6.5.6 9.9.6s6.7-.2 9.9-.6c.2-1.2.2-2.4.2-3.6 0 1.2 0 2.4.2 3.6 57.5-5 103-53.7 103-112.8 0-1.4 0-2.8-.2-4.2-.2-6.2-.8-12.1-1.9-17.8-.3-.8-.5-1.6-.6-2.4zM59.9 154.1v-.6c42.8 12.1 75.3 48.4 81.8 93.1-46.1-5.7-81.8-45.1-81.8-92.5zm93.2 58.1c-16-38.8-49.7-68.4-90.8-78.9 9.3-41.6 46.4-72.5 90.8-72.5 44.2 0 81.3 31.1 90.6 72.7-41.1 10.5-74.6 40-90.6 78.7zm93.1-58.1c0 47.4-35.7 87-81.8 92.6 6.5-44.8 39-81.1 81.8-93.3v.7z" class="st1"/></svg>