<svg xmlns="http://www.w3.org/2000/svg" width="297.05" height="297.05" viewBox="0 0 297.05 297.05"><path d="M291.919 85.301l-69.564-69.675a17.497 17.497 0 0 0-12.47-5.171 17.63 17.63 0 0 0-10.33 3.347l-1.929 1.1-89.508 12.311c-2.05.076-4.036.401-5.934.939l-3.141-2.953c-.129-.121-.261-.24-.395-.355a17.62 17.62 0 0 0-11.487-4.261 17.5 17.5 0 0 0-12.474 5.176L5.132 95.425c-6.219 6.233-6.864 16.195-1.505 23.175.185.239.378.473.579.698l29.846 33.319c.967 4.03 2.293 8.183 3.95 12.439-7.239 8.719-6.783 21.715 1.385 29.886l.042.041.097.096c4.099 4.084 9.513 6.358 15.282 6.46a22.684 22.684 0 0 0-.181 2.705 22.074 22.074 0 0 0 6.483 15.686l.089.09.041.042a22.077 22.077 0 0 0 17.758 6.41c.066.075.137.15.204.226-.012.301-.044.599-.044.901a22.073 22.073 0 0 0 6.485 15.688l.092.094.038.038a22.074 22.074 0 0 0 15.712 6.507l.044-.002 2.118 2.118c.246 5.559 2.501 10.753 6.461 14.713l.076.075.077.076c3.952 3.93 9.128 6.168 14.663 6.413l5.855 5.856c4.783 4.783 11.157 7.417 17.947 7.417 7.814 0 15.076-3.513 19.924-9.639a24.9 24.9 0 0 0 5.002-11.11l3.677 3.678c4.857 4.856 11.566 7.643 18.406 7.643 5.648 0 11.172-1.91 15.555-5.38a25.42 25.42 0 0 0 9.23-15.386c4.696 4.017 10.766 6.289 16.942 6.289 5.647 0 11.172-1.911 15.555-5.38a25.42 25.42 0 0 0 3.293-36.73 25.067 25.067 0 0 0 11.184-4.997 25.42 25.42 0 0 0 9.596-18.444 25.408 25.408 0 0 0-7.375-19.427l-9.433-9.433c.344-.342.673-.7.976-1.086 17.664-22.508 27.176-39.253 30.683-54.068.275-.484.518-.988.724-1.508l1.948-4.908c4.024-6.816 3.013-15.685-2.694-21.405zM55.207 189.559c-2.615 0-5.229-.998-7.226-2.993l-.108-.107c-3.989-3.99-3.989-10.461 0-14.45l7.994-7.994a10.181 10.181 0 0 1 7.225-2.994c2.616 0 5.231.998 7.228 2.994l.105.107c3.992 3.99 3.992 10.461 0 14.451l-7.992 7.993a10.194 10.194 0 0 1-7.226 2.993zm28.973 22.018a10.188 10.188 0 0 1-7.227 2.994c-2.615 0-5.23-.998-7.227-2.994l-.106-.107c-3.991-3.991-3.991-10.46 0-14.451l18.912-18.912a10.192 10.192 0 0 1 7.228-2.994c2.616 0 5.231.998 7.227 2.994l.107.106c3.99 3.991 3.99 10.462 0 14.451L84.18 211.577zm24.53 23.356a10.182 10.182 0 0 1-7.225 2.992c-2.616 0-5.231-.997-7.226-2.992l-.108-.108c-3.991-3.99-3.991-10.461 0-14.452l12.239-12.241a10.187 10.187 0 0 1 7.226-2.992c2.615 0 5.23.997 7.227 2.992l.108.108c3.989 3.99 3.989 10.462 0 14.452l-12.241 12.241zm17.216 26.434c-2.615 0-5.229-.998-7.225-2.993l-.108-.106c-3.992-3.991-3.992-10.463 0-14.453l5.567-5.567a10.19 10.19 0 0 1 7.227-2.993c2.615 0 5.231.998 7.227 2.993l.107.108c3.989 3.991 3.989 10.461 0 14.451l-5.568 5.567a10.194 10.194 0 0 1-7.227 2.993zm33.316 8.139c-2.684 3.391-6.599 5.086-10.515 5.086-3.43 0-6.86-1.301-9.462-3.902l-1.034-1.034a22.42 22.42 0 0 0 3.406-2.797l5.566-5.565c3.92-3.921 6.047-8.956 6.419-14.095l4.28 4.279c4.85 4.848 5.596 12.651 1.34 18.028zm101.988-83.313c5.573 5.572 5.179 14.941-1.183 19.977-2.383 1.886-5.24 2.789-8.107 2.789a14.079 14.079 0 0 1-9.921-4.129l-48.518-48.518a6.43 6.43 0 0 0-4.561-1.89 6.43 6.43 0 0 0-4.561 1.89 6.527 6.527 0 0 0 0 9.234l62.373 62.374c5.572 5.572 5.178 14.941-1.183 19.977-2.383 1.885-5.24 2.789-8.107 2.789a14.083 14.083 0 0 1-9.921-4.129l-62.081-62.081a6.518 6.518 0 0 0-4.623-1.915 6.521 6.521 0 0 0-4.623 1.915 6.441 6.441 0 0 0 0 9.11l48.811 48.811c5.572 5.572 5.178 14.941-1.183 19.976-2.383 1.886-5.24 2.789-8.107 2.789a14.08 14.08 0 0 1-9.921-4.129l-50.44-50.441a22.07 22.07 0 0 0-5.938-10.839l-.109-.109a22.037 22.037 0 0 0-12.713-6.282 22.194 22.194 0 0 0 1.472-7.924 22.075 22.075 0 0 0-6.507-15.711l-.036-.036-.094-.093a22.071 22.071 0 0 0-15.69-6.487c-3.925 0-7.685 1.03-11.001 2.929a22.046 22.046 0 0 0-5.804-10.36l-.072-.073-.078-.079a22.076 22.076 0 0 0-15.713-6.509 22.067 22.067 0 0 0-15.713 6.512l-.035.035a76.857 76.857 0 0 1-1.946-7.161 5.723 5.723 0 0 0-1.043-2.271l-31.209-34.843a5.617 5.617 0 0 1 .477-7.388l69.562-69.671a5.6 5.6 0 0 1 3.978-1.649c1.301 0 2.604.449 3.661 1.358l.551.517c-4.658 4.583-7.555 10.95-7.555 17.984 0 13.893 11.277 25.199 25.158 25.248l44.313.562 107.94 107.941zm22.671-85.03l-2.391 6.024a5.716 5.716 0 0 0-1.043 2.271c-3.38 15.511-15.294 33.305-28.649 50.322-16.99-16.99-93.427-93.465-93.427-93.465l-49.324-.626c-7.286 0-13.248-5.962-13.248-13.248s5.962-13.247 13.248-13.247l92.483-12.72a.048.048 0 0 0 .026-.012l4.646-2.65a5.598 5.598 0 0 1 3.661-1.358c1.444 0 2.885.554 3.978 1.649l69.562 69.671a5.617 5.617 0 0 1 .478 7.389z"/></svg>