<svg xmlns="http://www.w3.org/2000/svg" width="297" height="297" viewBox="0 0 297 297"><path fill="#fff" d="M245.414 108.341l11.585-35.805c-16.934-24.115-41.86-42.35-70.724-50.991l-30.108 21.71v43.49l48.248 34.863 40.999-13.267zm35.552 37.497l-30.605-22.281-42.417 13.782-17.952 55.184 26.064 35.874 38.024.064C270.964 206.221 281 178.512 281 148.5c0-.891-.017-1.776-.034-2.662zm-192.094-9.042l-42.654-13.858-30.166 21.932A132.686 132.686 0 0 0 16 148.5c0 29.614 9.768 56.988 26.247 79.076l37.722.117 26.579-36.584-17.676-54.313zm3.865-15.513l47.43-34.536V43.253L110.409 21.54c-28.995 8.677-53.763 27.034-70.707 51.307l11.262 34.85 41.773 13.586zm26.765 79.217l-26.686 36.729 11.812 36.297A131.93 131.93 0 0 0 148.5 281c14.917 0 29.265-2.48 42.656-7.046l11.838-36.315-26.983-37.139h-56.509z"/><path d="M148.5 0C66.617 0 0 66.617 0 148.5S66.617 297 148.5 297 297 230.383 297 148.5 230.383 0 148.5 0zm7.667 43.255l30.108-21.71c28.864 8.642 53.706 26.876 70.641 50.991l-11.543 35.805-40.979 13.268-48.227-34.863V43.255zM110.409 21.54l29.758 21.713v43.494l-47.43 34.536-41.731-13.587L39.66 72.847c16.944-24.273 41.754-42.63 70.749-51.307zM42.247 227.576C25.768 205.488 16 178.114 16 148.5c0-1.214.019-2.424.052-3.63l30.166-21.933 42.654 13.858 17.676 54.314-26.579 36.584-37.722-.117zm148.909 46.378C177.765 278.52 163.417 281 148.5 281c-15.37 0-30.134-2.64-43.872-7.475l-11.812-36.297 26.686-36.729h56.509l26.983 37.139-11.838 36.316zm24.9-45.558l-26.064-35.874 17.952-55.184 42.417-13.782 30.605 22.281c.018.886.034 1.771.034 2.662 0 30.012-10.036 57.721-26.92 79.96l-38.024-.063z"/></svg>